#N canvas 73 27 1146 708 10;
#X obj 89 121 ctlin 20;
#X obj 282 121 ctlin 21;
#X obj 450 121 ctlin 22;
#X obj 697 127 ctlin 23;
#X obj 150 324 ctlin 24;
#X obj 378 319 ctlin 25;
#X obj 714 315 ctlin 26;
#X obj 144 519 ctlin 27;
#X obj 477 12 ctlin 28;
#X obj 541 12 ctlin 29;
#X obj 698 169 tgl 15 0 empty empty empty 17 7 0 10 -262144 -1 -1 0
1;
#X obj 150 372 tgl 15 0 empty empty empty 17 7 0 10 -262144 -1 -1 0
1;
#X obj 378 366 tgl 15 0 empty empty empty 17 7 0 10 -262144 -1 -1 0
1;
#X obj 714 357 tgl 15 0 empty empty empty 17 7 0 10 -262144 -1 -1 0
1;
#X obj 144 563 tgl 15 0 empty empty empty 17 7 0 10 -262144 -1 -1 0
1;
#X obj 477 54 tgl 15 0 empty empty empty 17 7 0 10 -262144 -1 -1 0
1;
#X obj 541 56 tgl 15 0 empty empty empty 17 7 0 10 -262144 -1 -1 0
1;
#X obj 89 163 tgl 15 0 empty empty empty 17 7 0 10 -262144 -1 -1 0
1;
#X obj 38 161 adc~;
#X obj 105 202 r delaycontrol;
#X obj 105 224 unpack f f;
#X obj 54 19 ctlin;
#X obj 282 163 tgl 15 0 empty empty empty 17 7 0 10 -262144 -1 -1 0
1;
#X obj 298 224 unpack f f;
#X obj 298 202 r volumecontrol;
#X obj 210 162 r~ delayout;
#X obj 68 270 s~ delayout;
#X obj 450 163 tgl 15 0 empty empty empty 17 7 0 10 -262144 -1 -1 0
1;
#X obj 463 218 unpack f f;
#X obj 357 162 r~ volumeout;
#X obj 248 270 s~ volumeout;
#X obj 463 195 r tremolocontrol;
#X obj 266 247 volume;
#X obj 34 199 bypass;
#X obj 89 143 switch;
#X obj 282 143 switch;
#X obj 450 143 switch;
#X obj 698 149 switch;
#X obj 150 350 switch;
#X obj 378 346 switch;
#X obj 714 337 switch;
#X obj 144 542 switch;
#X obj 477 34 switch;
#X obj 541 34 switch;
#X obj 465 255 tremolo-2;
#X obj 88 250 delay2;
#X obj 416 284 s~ tremoloout;
#X obj 597 189 r~ tremoloout;
#X obj 753 170 r loopercontrol;
#X obj 753 193 unpack f f;
#X obj 729 235 looper;
#X obj 649 281 s~ looperout;
#X obj 36 355 r~ looperout;
#X obj 105 443 distortion;
#X obj 37 489 s~ distortionout;
#X obj 253 365 r~ distortionout;
#X obj 433 364 r phasercontrol;
#X obj 433 396 unpack f f;
#X obj 371 421 phaser2;
#X obj 258 453 s~ phaserout;
#X obj 593 355 r~ phaserout;
#X obj 593 446 s~ vibratoout;
#X obj 693 410 vibrato;
#X obj 779 354 r vibratocontrol;
#X obj 779 381 unpack f f;
#X obj 20 565 r~ vibratoout;
#X obj 54 39 control;
#X obj 54 671 dac~;
#X obj 127 624 wha-wha;
#X obj 208 558 r wha-whacontrol;
#X obj 208 587 unpack f f;
#X msg 974 231 \; pd dsp 1;
#X obj 974 168 loadbang;
#X obj 974 199 delay 100;
#X obj 231 182 bypass;
#X obj 398 183 bypass;
#X obj 649 215 bypass;
#X obj 36 395 bypass;
#X obj 253 401 bypass;
#X obj 593 390 bypass;
#X obj 20 599 bypass;
#X connect 0 0 34 0;
#X connect 1 0 35 0;
#X connect 2 0 36 0;
#X connect 3 0 37 0;
#X connect 4 0 38 0;
#X connect 5 0 39 0;
#X connect 6 0 40 0;
#X connect 7 0 41 0;
#X connect 8 0 42 0;
#X connect 9 0 43 0;
#X connect 10 0 76 1;
#X connect 11 0 77 1;
#X connect 12 0 78 1;
#X connect 13 0 79 1;
#X connect 14 0 80 1;
#X connect 17 0 33 1;
#X connect 18 0 33 0;
#X connect 18 1 33 0;
#X connect 19 0 20 0;
#X connect 20 0 45 1;
#X connect 20 1 45 2;
#X connect 21 1 66 0;
#X connect 22 0 74 1;
#X connect 23 0 32 1;
#X connect 24 0 23 0;
#X connect 25 0 74 0;
#X connect 27 0 75 1;
#X connect 28 0 44 1;
#X connect 28 1 44 2;
#X connect 29 0 75 0;
#X connect 31 0 28 0;
#X connect 32 0 30 0;
#X connect 33 0 26 0;
#X connect 33 1 45 0;
#X connect 34 0 17 0;
#X connect 35 0 22 0;
#X connect 36 0 27 0;
#X connect 37 0 10 0;
#X connect 38 0 11 0;
#X connect 39 0 12 0;
#X connect 40 0 13 0;
#X connect 41 0 14 0;
#X connect 42 0 15 0;
#X connect 43 0 16 0;
#X connect 44 0 46 0;
#X connect 45 0 26 0;
#X connect 47 0 76 0;
#X connect 48 0 49 0;
#X connect 49 0 50 1;
#X connect 49 1 50 2;
#X connect 50 0 51 0;
#X connect 52 0 77 0;
#X connect 53 0 54 0;
#X connect 55 0 78 0;
#X connect 56 0 57 0;
#X connect 57 0 58 1;
#X connect 57 1 58 2;
#X connect 58 0 59 0;
#X connect 60 0 79 0;
#X connect 62 0 61 0;
#X connect 63 0 64 0;
#X connect 64 0 62 1;
#X connect 64 1 62 2;
#X connect 65 0 80 0;
#X connect 68 0 67 0;
#X connect 68 0 67 1;
#X connect 69 0 70 0;
#X connect 70 0 68 1;
#X connect 70 1 68 2;
#X connect 72 0 73 0;
#X connect 73 0 71 0;
#X connect 74 0 30 0;
#X connect 74 1 32 0;
#X connect 75 0 46 0;
#X connect 75 1 44 0;
#X connect 76 0 51 0;
#X connect 76 1 50 0;
#X connect 77 0 54 0;
#X connect 77 1 53 0;
#X connect 78 0 59 0;
#X connect 78 1 58 0;
#X connect 79 0 61 0;
#X connect 79 1 62 0;
#X connect 80 0 67 0;
#X connect 80 0 67 1;
#X connect 80 1 68 0;
