#N canvas 788 205 476 359 10;
#X obj 95 151 switch;
#X obj 106 51 loadbang;
#X msg 71 51 bang;
#X obj 174 173 t l;
#X msg 164 152 bang;
#X obj 95 78 until;
#X obj 95 106 f;
#X obj 139 107 + 1;
#X obj 207 95 sel 0;
#X obj 139 128 mod 10;
#X msg 95 128 bang;
#X obj 32 215 print Output should be alternating 1s and 0s;
#X obj 207 117 del;
#X obj 95 173 list prepend;
#X obj 32 193 list append;
#X connect 0 0 13 0;
#X connect 1 0 5 0;
#X connect 2 0 5 0;
#X connect 3 0 13 1;
#X connect 4 0 13 1;
#X connect 5 0 6 0;
#X connect 6 0 7 0;
#X connect 6 0 10 0;
#X connect 7 0 9 0;
#X connect 8 0 5 1;
#X connect 8 0 12 0;
#X connect 9 0 6 1;
#X connect 9 0 8 0;
#X connect 10 0 0 0;
#X connect 12 0 14 0;
#X connect 13 0 3 0;
#X connect 13 0 14 1;
#X connect 14 0 11 0;
