#N canvas 170 47 450 300 10;
#X obj 76 52 moses 0.5;
#X msg 78 88 0;
#X msg 117 88 1;
#X msg 78 112 \$1 50;
#X obj 78 134 line~;
#X obj 69 166 *~;
#X msg 198 88 0;
#X msg 237 88 1;
#X msg 198 112 \$1 50;
#X obj 198 134 line~;
#X obj 190 167 *~;
#X obj 69 187 outlet~;
#X obj 190 188 outlet~;
#X obj 138 27 inlet;
#X obj 17 28 inlet~;
#X obj 76 8 loadbang;
#X msg 76 30 0;
#X connect 0 0 2 0;
#X connect 0 0 6 0;
#X connect 0 1 7 0;
#X connect 0 1 1 0;
#X connect 1 0 3 0;
#X connect 2 0 3 0;
#X connect 3 0 4 0;
#X connect 4 0 5 1;
#X connect 5 0 11 0;
#X connect 6 0 8 0;
#X connect 7 0 8 0;
#X connect 8 0 9 0;
#X connect 9 0 10 1;
#X connect 10 0 12 0;
#X connect 13 0 0 0;
#X connect 14 0 5 0;
#X connect 14 0 10 0;
#X connect 15 0 16 0;
#X connect 16 0 0 0;
