#N canvas 207 108 971 546 10;
#X obj 136 149 hradio 15 1 0 10 empty empty empty 0 -8 0 10 -262144
-1 -1 6;
#X obj 136 128 - 20;
#X obj 136 107 spigot;
#X obj 169 87 < 30;
#X floatatom 214 89 5 0 0 0 - - -, f 5;
#X floatatom 215 108 5 0 0 0 - - -, f 5;
#X floatatom 215 128 5 0 0 0 - - -, f 5;
#X text 218 42 This is responsible to make the most recent button pushed
appear on the hradio;
#X obj 135 53 t f f f;
#X obj 177 169 ctlin 30;
#X obj 233 169 ctlin 31;
#X floatatom 136 169 5 0 0 0 - - -, f 5;
#X obj 141 222 pack f f f;
#X obj 70 194 t b b;
#X obj 141 243 route 0 1 2 3 4 5 6 7 8 9;
#X obj 9 273 s delaycontrol;
#X obj 135 33 inlet;
#X obj 7 299 s volumecontrol;
#X obj 6 324 s tremolocontrol;
#X obj 148 272 s loopercontrol;
#X obj 148 294 s distortioncontrol;
#X obj 148 321 s phasercontrol;
#X obj 314 278 s vibratocontrol;
#X obj 316 297 s wha-whacontrol;
#X obj 485 242 unpack f f;
#X floatatom 485 264 5 0 0 0 - - -, f 5;
#X floatatom 543 265 5 0 0 0 - - -, f 5;
#X obj 374 198 unpack f f f;
#X floatatom 374 220 5 0 0 0 - - -, f 5;
#X floatatom 409 220 5 0 0 0 - - -, f 5;
#X floatatom 444 219 5 0 0 0 - - -, f 5;
#X connect 0 0 11 0;
#X connect 1 0 0 0;
#X connect 2 0 1 0;
#X connect 2 0 6 0;
#X connect 3 0 2 1;
#X connect 3 0 5 0;
#X connect 8 0 2 0;
#X connect 8 1 3 0;
#X connect 8 2 4 0;
#X connect 9 0 12 1;
#X connect 9 0 13 0;
#X connect 10 0 12 2;
#X connect 10 0 13 0;
#X connect 11 0 12 0;
#X connect 12 0 14 0;
#X connect 12 0 27 0;
#X connect 13 0 12 0;
#X connect 13 1 12 0;
#X connect 14 0 15 0;
#X connect 14 1 17 0;
#X connect 14 2 18 0;
#X connect 14 3 19 0;
#X connect 14 4 20 0;
#X connect 14 5 21 0;
#X connect 14 6 22 0;
#X connect 14 7 23 0;
#X connect 16 0 8 0;
#X connect 24 0 25 0;
#X connect 24 1 26 0;
#X connect 27 0 28 0;
#X connect 27 1 29 0;
#X connect 27 2 30 0;
