#N canvas -8 -8 1920 1037 10;
#X obj 41 87 delwrite~ del 1000;
#X obj 209 176 delread~ del;
#X floatatom 174 139 5 0 0 0 - - -, f 5;
#X obj 98 151 *~;
#X floatatom 209 248 5 0 0 0 - - -, f 5;
#X text 208 107 Delay Time (max is 1000ms);
#X obj 98 135 *~;
#X floatatom 210 91 5 0 0 0 - - -, f 5;
#X text 208 40 Feedback Loop Control (Max Amplitude is 1);
#X text 209 197 Delay Level/Volume (Max Amplitude is 1);
#X msg 94 39 \$1 100;
#X obj 94 61 line~;
#X obj 17 205 *~;
#X obj 47 205 *~;
#X floatatom 173 91 5 0 0 0 - - -, f 5;
#X floatatom 172 248 5 0 0 0 - - -, f 5;
#X obj 210 212 hsl 128 15 0 127 0 0 empty empty empty -2 -8 0 10 -262144
-1 -1 0 1;
#X obj 209 230 expr pow(127 \, $f1/127)/127;
#X obj 210 74 expr pow(127 \, $f1/127)/127;
#X floatatom 209 157 5 0 0 0 - - -, f 5;
#X obj 209 138 expr (pow(127 \, $f1/127)/127)*1000;
#X obj 94 17 inlet;
#X obj 17 37 inlet~;
#X obj 18 236 outlet~;
#X text 21 291 https://www.youtube.com/watch?v=jT_10zJj0eE;
#X text 20 276 Basic Design of Delay Patch from Leon Todd;
#X obj 209 121 inlet;
#X obj 210 57 inlet;
#X text 324 259 First Inlet - On/Off Switch;
#X text 324 275 Second Inlet - Delay Time;
#X text 324 291 Third Inlet - Feedback Loop Control;
#X connect 1 0 3 0;
#X connect 1 0 6 0;
#X connect 3 0 13 0;
#X connect 4 0 3 1;
#X connect 6 0 0 0;
#X connect 7 0 6 1;
#X connect 10 0 11 0;
#X connect 11 0 12 1;
#X connect 11 0 13 1;
#X connect 12 0 23 0;
#X connect 13 0 23 0;
#X connect 16 0 15 0;
#X connect 16 0 17 0;
#X connect 17 0 4 0;
#X connect 18 0 7 0;
#X connect 19 0 1 0;
#X connect 20 0 19 0;
#X connect 21 0 10 0;
#X connect 22 0 12 0;
#X connect 26 0 20 0;
#X connect 26 0 2 0;
#X connect 27 0 18 0;
