#N canvas -8 -8 1920 1037 10;
#X obj 17 37 adc~;
#X obj 18 236 dac~;
#X obj 41 87 delwrite~ del 1000;
#X obj 209 166 delread~ del;
#X obj 211 121 hsl 128 15 0 1000 0 0 empty empty empty -2 -8 0 10 -262144
-1 -1 0 1;
#X floatatom 209 144 5 0 0 0 - - -, f 5;
#X obj 98 151 *~;
#X obj 211 213 hsl 128 15 0 1 0 0 empty empty empty -2 -8 0 10 -262144
-1 -1 0 1;
#X floatatom 209 233 5 0 0 0 - - -, f 5;
#X text 208 107 Delay Time (max is 1000ms);
#X obj 98 135 *~;
#X obj 212 56 hsl 128 15 0 1 0 0 empty empty empty -2 -8 0 10 -262144
-1 -1 0 1;
#X floatatom 210 76 5 0 0 0 - - -, f 5;
#X text 208 40 Feedback Loop Control (Max Amplitude is 1);
#X text 209 197 Delay Level/Volume (Max Amplitude is 1);
#X obj 94 19 tgl 15 0 empty empty empty 17 7 0 10 -262144 -1 -1 0 1
;
#X msg 94 39 \$1 100;
#X obj 94 61 line~;
#X obj 17 205 *~;
#X obj 47 205 *~;
#X connect 0 0 18 0;
#X connect 0 1 2 0;
#X connect 3 0 6 0;
#X connect 3 0 10 0;
#X connect 4 0 5 0;
#X connect 5 0 3 0;
#X connect 6 0 19 0;
#X connect 7 0 8 0;
#X connect 8 0 6 1;
#X connect 10 0 2 0;
#X connect 11 0 12 0;
#X connect 12 0 10 1;
#X connect 15 0 16 0;
#X connect 16 0 17 0;
#X connect 17 0 18 1;
#X connect 17 0 19 1;
#X connect 18 0 1 0;
#X connect 18 0 1 1;
#X connect 19 0 1 0;
#X connect 19 0 1 1;
