#N canvas 265 85 574 333 10;
#X obj 41 87 delwrite~ del 1000;
#X obj 209 176 delread~ del;
#X floatatom 174 139 5 0 0 0 - - -, f 5;
#X text 208 107 Delay Time (max is 1000ms);
#X obj 98 135 *~;
#X floatatom 210 91 5 0 0 0 - - -, f 5;
#X text 208 40 Feedback Loop Control (Max Amplitude is 1);
#X floatatom 173 91 5 0 0 0 - - -, f 5;
#X floatatom 209 157 5 0 0 0 - - -, f 5;
#X obj 209 138 expr (pow(127 \, $f1/127)/127)*1000;
#X obj 17 37 inlet~;
#X obj 18 236 outlet~;
#X text 21 291 https://www.youtube.com/watch?v=jT_10zJj0eE;
#X text 20 276 Basic Design of Delay Patch from Leon Todd;
#X obj 209 121 inlet;
#X obj 210 57 inlet;
#X text 324 275 Second Inlet - Delay Time;
#X text 324 291 Third Inlet - Feedback Loop Control;
#X text 324 259 First Inlet - On/Off Switch;
#X obj 210 74 expr pow(127 \, $f1/127)/128;
#X obj 98 151 *~ 0.7;
#X connect 1 0 4 0;
#X connect 1 0 20 0;
#X connect 4 0 0 0;
#X connect 5 0 4 1;
#X connect 8 0 1 0;
#X connect 9 0 8 0;
#X connect 10 0 11 0;
#X connect 10 0 0 0;
#X connect 14 0 9 0;
#X connect 14 0 2 0;
#X connect 15 0 19 0;
#X connect 19 0 5 0;
#X connect 20 0 11 0;
