#N canvas -8 -8 1920 1037 10;
#X obj 17 37 adc~;
#X obj 18 236 dac~;
#X obj 41 87 delwrite~ del 1000;
#X obj 209 176 delread~ del;
#X floatatom 174 139 5 0 0 0 - - -, f 5;
#X obj 98 151 *~;
#X floatatom 209 248 5 0 0 0 - - -, f 5;
#X text 208 107 Delay Time (max is 1000ms);
#X obj 98 135 *~;
#X floatatom 210 91 5 0 0 0 - - -, f 5;
#X text 208 40 Feedback Loop Control (Max Amplitude is 1);
#X text 209 197 Delay Level/Volume (Max Amplitude is 1);
#X obj 94 19 tgl 15 0 empty empty empty 17 7 0 10 -262144 -1 -1 0 1
;
#X msg 94 39 \$1 100;
#X obj 94 61 line~;
#X obj 17 205 *~;
#X obj 47 205 *~;
#X obj 216 331 hsl 128 15 0 127 0 0 empty empty empty -2 -8 0 10 -262144
-1 -1 0 1;
#X floatatom 185 395 5 0 0 0 - - -, f 5;
#X floatatom 267 396 5 0 0 0 - - -, f 5;
#X floatatom 173 91 5 0 0 0 - - -, f 5;
#X floatatom 172 248 5 0 0 0 - - -, f 5;
#X obj 212 55 hsl 128 15 0 127 0 0 empty empty empty -2 -8 0 10 -262144
-1 -1 0 1;
#X obj 210 212 hsl 128 15 0 127 0 0 empty empty empty -2 -8 0 10 -262144
-1 -1 0 1;
#X obj 228 349 expr pow(127 \, $f1/127)/127;
#X obj 227 368 expr pow(127 \, $f1/127);
#X floatatom 227 394 5 0 0 0 - - -, f 5;
#X obj 48 335 spigot;
#X floatatom 118 342 5 0 0 0 - - -, f 5;
#X floatatom 49 356 5 0 0 0 - - -, f 5;
#X obj 118 322 == 0.007;
#X obj 267 416 >= 0.008;
#X floatatom 267 437 5 0 0 0 - - -, f 5;
#X obj 230 456 spigot;
#X floatatom 229 481 5 0 0 0 - - -, f 5;
#X obj 209 230 expr pow(127 \, $f1/127)/127;
#X obj 210 74 expr pow(127 \, $f1/127)/127;
#X floatatom 209 157 5 0 0 0 - - -, f 5;
#X obj 211 121 hsl 128 15 0 127 0 0 empty empty empty -2 -8 0 10 -262144
-1 -1 0 1;
#X obj 209 138 expr (pow(127 \, $f1/127)/127)*1000;
#X connect 0 0 15 0;
#X connect 0 1 2 0;
#X connect 3 0 5 0;
#X connect 3 0 8 0;
#X connect 5 0 16 0;
#X connect 6 0 5 1;
#X connect 8 0 2 0;
#X connect 9 0 8 1;
#X connect 12 0 13 0;
#X connect 13 0 14 0;
#X connect 14 0 15 1;
#X connect 14 0 16 1;
#X connect 15 0 1 0;
#X connect 15 0 1 1;
#X connect 16 0 1 0;
#X connect 16 0 1 1;
#X connect 17 0 18 0;
#X connect 17 0 24 0;
#X connect 17 0 25 0;
#X connect 19 0 31 0;
#X connect 22 0 20 0;
#X connect 22 0 36 0;
#X connect 23 0 21 0;
#X connect 23 0 35 0;
#X connect 24 0 19 0;
#X connect 24 0 33 0;
#X connect 25 0 26 0;
#X connect 27 0 29 0;
#X connect 28 0 27 1;
#X connect 30 0 28 0;
#X connect 31 0 32 0;
#X connect 32 0 33 1;
#X connect 33 0 34 0;
#X connect 35 0 6 0;
#X connect 36 0 9 0;
#X connect 37 0 3 0;
#X connect 38 0 4 0;
#X connect 38 0 39 0;
#X connect 39 0 37 0;
