#N canvas -8 -8 1920 1037 10;
#X obj 23 140 tabwrite~ looper;
#X obj 154 59 sel 1 0;
#X msg 117 101 stop;
#X obj 154 249 tabread~ looper;
#X obj 154 209 phasor~;
#X obj 154 229 *~ 1;
#X obj 154 116 timer;
#X obj 154 140 t b f f;
#X obj 154 186 /;
#X msg 154 166 1000;
#X msg 223 90 \; looper const 0 \;;
#X text 23 398 Max recording time is 10 seconds;
#X obj 223 70 del 2;
#X obj 223 51 t b b;
#X obj 23 66 line~;
#X msg 23 49 \$1 100;
#X obj 154 286 *~;
#X obj 23 166 table looper 441000;
#X obj 206 209 * 44.1;
#X text 20 10 Sound On/Off;
#X text 152 9 Record;
#X text 220 9 Clear;
#X obj 23 84 s~ on-off;
#X obj 172 267 r~ on-off;
#X text 24 342 Basic Looper Design from:;
#X text 24 358 https://www.rebeltech.org/2016/05/pure-data-tutorial-2-sampler-looper/
;
#X obj 23 102 inlet~;
#X obj 154 313 outlet~;
#X obj 23 30 inlet;
#X obj 154 30 inlet;
#X obj 223 31 inlet;
#X connect 1 0 0 0;
#X connect 1 0 6 0;
#X connect 1 1 2 0;
#X connect 1 1 6 1;
#X connect 2 0 0 0;
#X connect 3 0 16 0;
#X connect 4 0 5 0;
#X connect 5 0 3 0;
#X connect 6 0 7 0;
#X connect 7 0 9 0;
#X connect 7 1 8 1;
#X connect 7 2 18 0;
#X connect 8 0 4 0;
#X connect 9 0 8 0;
#X connect 12 0 10 0;
#X connect 13 0 12 0;
#X connect 13 1 10 0;
#X connect 14 0 22 0;
#X connect 15 0 14 0;
#X connect 16 0 27 0;
#X connect 18 0 5 1;
#X connect 23 0 16 1;
#X connect 26 0 0 0;
#X connect 28 0 15 0;
#X connect 29 0 1 0;
#X connect 30 0 13 0;
