#N canvas 0 22 854 484 10;
#X obj 23 132 tabwrite~ looper;
#X msg 117 93 stop;
#X obj 154 241 tabread~ looper;
#X obj 154 201 phasor~;
#X obj 154 221 *~ 1;
#X obj 154 108 timer;
#X obj 154 132 t b f f;
#X obj 154 178 /;
#X msg 154 158 1000;
#X msg 223 114 \; looper const 0 \;;
#X text 23 398 Max recording time is 10 seconds;
#X obj 223 94 del 2;
#X obj 223 75 t b b;
#X obj 23 158 table looper 441000;
#X obj 206 221 * 44.1;
#X text 20 10 Sound On/Off;
#X text 152 9 Record;
#X text 220 9 Clear;
#X text 24 341 Basic Looper Design from:;
#X text 24 358 https://www.rebeltech.org/2016/05/pure-data-tutorial-2-sampler-looper/
;
#X obj 23 94 inlet~;
#X obj 154 305 outlet~;
#X obj 154 30 inlet;
#X obj 223 31 inlet;
#X text 23 181 1st Inlet - On/Off;
#X text 23 194 2nd Inlet - Record;
#X text 23 208 3rd Inlet - Clear;
#X floatatom 106 54 5 0 0 0 - - -, f 5;
#X obj 223 53 sel 127;
#X obj 154 51 sel 127 0;
#X connect 1 0 0 0;
#X connect 2 0 21 0;
#X connect 3 0 4 0;
#X connect 4 0 2 0;
#X connect 5 0 6 0;
#X connect 6 0 8 0;
#X connect 6 1 7 1;
#X connect 6 2 14 0;
#X connect 7 0 3 0;
#X connect 8 0 7 0;
#X connect 11 0 9 0;
#X connect 12 0 11 0;
#X connect 12 1 9 0;
#X connect 14 0 4 1;
#X connect 20 0 0 0;
#X connect 22 0 27 0;
#X connect 22 0 29 0;
#X connect 23 0 28 0;
#X connect 28 0 12 0;
#X connect 29 0 1 0;
#X connect 29 0 5 1;
#X connect 29 1 0 0;
#X connect 29 1 5 0;
