#N canvas 1980 158 1137 445 10;
#X obj 408 114 ctlin 20;
#N canvas 2116 22 450 300 switch 0;
#X obj 115 157 line;
#X msg 115 66 1;
#X obj 115 89 +;
#X obj 115 111 % 2;
#X obj 151 92 i;
#X obj 115 44 inlet;
#X obj 115 179 outlet;
#X msg 115 135 \$1 20;
#X connect 0 0 6 0;
#X connect 1 0 2 0;
#X connect 2 0 3 0;
#X connect 3 0 7 0;
#X connect 3 0 4 0;
#X connect 4 0 2 1;
#X connect 5 0 1 0;
#X connect 7 0 0 0;
#X restore 408 136 pd switch;
#N canvas 319 385 450 300 switch 0;
#X obj 115 157 line;
#X msg 115 66 1;
#X obj 115 89 +;
#X obj 115 111 % 2;
#X obj 151 92 i;
#X obj 115 44 inlet;
#X obj 115 179 outlet;
#X msg 115 135 \$1 20;
#X connect 0 0 6 0;
#X connect 1 0 2 0;
#X connect 2 0 3 0;
#X connect 3 0 7 0;
#X connect 3 0 4 0;
#X connect 4 0 2 1;
#X connect 5 0 1 0;
#X connect 7 0 0 0;
#X restore 541 136 pd switch;
#N canvas 402 286 450 300 switch 0;
#X obj 115 157 line;
#X msg 115 66 1;
#X obj 115 89 +;
#X obj 115 111 % 2;
#X obj 151 92 i;
#X obj 115 44 inlet;
#X obj 115 179 outlet;
#X msg 115 135 \$1 20;
#X connect 0 0 6 0;
#X connect 1 0 2 0;
#X connect 2 0 3 0;
#X connect 3 0 7 0;
#X connect 3 0 4 0;
#X connect 4 0 2 1;
#X connect 5 0 1 0;
#X connect 7 0 0 0;
#X restore 475 136 pd switch;
#X obj 475 114 ctlin 21;
#X obj 541 114 ctlin 22;
#N canvas 402 286 450 300 switch 0;
#X obj 115 157 line;
#X msg 115 66 1;
#X obj 115 89 +;
#X obj 115 111 % 2;
#X obj 151 92 i;
#X obj 115 44 inlet;
#X obj 115 179 outlet;
#X msg 115 135 \$1 20;
#X connect 0 0 6 0;
#X connect 1 0 2 0;
#X connect 2 0 3 0;
#X connect 3 0 7 0;
#X connect 3 0 4 0;
#X connect 4 0 2 1;
#X connect 5 0 1 0;
#X connect 7 0 0 0;
#X restore 605 136 pd switch;
#N canvas 319 385 450 300 switch 0;
#X obj 115 157 line;
#X msg 115 66 1;
#X obj 115 89 +;
#X obj 115 111 % 2;
#X obj 151 92 i;
#X obj 115 44 inlet;
#X obj 115 179 outlet;
#X msg 115 135 \$1 20;
#X connect 0 0 6 0;
#X connect 1 0 2 0;
#X connect 2 0 3 0;
#X connect 3 0 7 0;
#X connect 3 0 4 0;
#X connect 4 0 2 1;
#X connect 5 0 1 0;
#X connect 7 0 0 0;
#X restore 738 136 pd switch;
#N canvas 402 286 450 300 switch 0;
#X obj 115 157 line;
#X msg 115 66 1;
#X obj 115 89 +;
#X obj 115 111 % 2;
#X obj 151 92 i;
#X obj 115 44 inlet;
#X obj 115 179 outlet;
#X msg 115 135 \$1 20;
#X connect 0 0 6 0;
#X connect 1 0 2 0;
#X connect 2 0 3 0;
#X connect 3 0 7 0;
#X connect 3 0 4 0;
#X connect 4 0 2 1;
#X connect 5 0 1 0;
#X connect 7 0 0 0;
#X restore 672 136 pd switch;
#N canvas 402 286 450 300 switch 0;
#X obj 115 157 line;
#X msg 115 66 1;
#X obj 115 89 +;
#X obj 115 111 % 2;
#X obj 151 92 i;
#X obj 115 44 inlet;
#X obj 115 179 outlet;
#X msg 115 135 \$1 20;
#X connect 0 0 6 0;
#X connect 1 0 2 0;
#X connect 2 0 3 0;
#X connect 3 0 7 0;
#X connect 3 0 4 0;
#X connect 4 0 2 1;
#X connect 5 0 1 0;
#X connect 7 0 0 0;
#X restore 804 135 pd switch;
#N canvas 319 385 450 300 switch 0;
#X obj 115 157 line;
#X msg 115 66 1;
#X obj 115 89 +;
#X obj 115 111 % 2;
#X obj 151 92 i;
#X obj 115 44 inlet;
#X obj 115 179 outlet;
#X msg 115 135 \$1 20;
#X connect 0 0 6 0;
#X connect 1 0 2 0;
#X connect 2 0 3 0;
#X connect 3 0 7 0;
#X connect 3 0 4 0;
#X connect 4 0 2 1;
#X connect 5 0 1 0;
#X connect 7 0 0 0;
#X restore 937 135 pd switch;
#N canvas 402 286 450 300 switch 0;
#X obj 115 157 line;
#X msg 115 66 1;
#X obj 115 89 +;
#X obj 115 111 % 2;
#X obj 151 92 i;
#X obj 115 44 inlet;
#X obj 115 179 outlet;
#X msg 115 135 \$1 20;
#X connect 0 0 6 0;
#X connect 1 0 2 0;
#X connect 2 0 3 0;
#X connect 3 0 7 0;
#X connect 3 0 4 0;
#X connect 4 0 2 1;
#X connect 5 0 1 0;
#X connect 7 0 0 0;
#X restore 871 135 pd switch;
#N canvas 402 286 450 300 switch 0;
#X obj 115 157 line;
#X msg 115 66 1;
#X obj 115 89 +;
#X obj 115 111 % 2;
#X obj 151 92 i;
#X obj 115 44 inlet;
#X obj 115 179 outlet;
#X msg 115 135 \$1 20;
#X connect 0 0 6 0;
#X connect 1 0 2 0;
#X connect 2 0 3 0;
#X connect 3 0 7 0;
#X connect 3 0 4 0;
#X connect 4 0 2 1;
#X connect 5 0 1 0;
#X connect 7 0 0 0;
#X restore 1001 135 pd switch;
#X obj 605 114 ctlin 23;
#X obj 672 114 ctlin 24;
#X obj 738 114 ctlin 25;
#X obj 804 113 ctlin 26;
#X obj 871 112 ctlin 27;
#X obj 937 113 ctlin 28;
#X obj 1001 113 ctlin 29;
#X obj 135 31 ctlin;
#X obj 136 149 hradio 15 1 0 10 empty empty empty 0 -8 0 10 -262144
-1 -1 0;
#X obj 136 128 - 20;
#X obj 136 107 spigot;
#X obj 169 87 < 30;
#X floatatom 214 89 5 0 0 0 - - -, f 5;
#X floatatom 215 108 5 0 0 0 - - -, f 5;
#X floatatom 215 128 5 0 0 0 - - -, f 5;
#X text 218 42 This is responsible to make the most recent button pushed
appear on the hradio;
#X obj 135 53 t f f f;
#X obj 81 274 adc~;
#X obj 88 381 dac~;
#X obj 541 156 tgl 15 0 empty empty empty 17 7 0 10 -262144 -1 -1 0
1;
#X obj 605 156 tgl 15 0 empty empty empty 17 7 0 10 -262144 -1 -1 0
1;
#X obj 672 157 tgl 15 0 empty empty empty 17 7 0 10 -262144 -1 -1 0
1;
#X obj 738 156 tgl 15 0 empty empty empty 17 7 0 10 -262144 -1 -1 0
1;
#X obj 804 155 tgl 15 0 empty empty empty 17 7 0 10 -262144 -1 -1 0
1;
#X obj 871 156 tgl 15 0 empty empty empty 17 7 0 10 -262144 -1 -1 0
1;
#X obj 937 155 tgl 15 0 empty empty empty 17 7 0 10 -262144 -1 -1 0
1;
#X obj 1001 157 tgl 15 0 empty empty empty 17 7 0 10 -262144 -1 -1
0 1;
#X obj 408 156 tgl 15 0 empty empty empty 17 7 0 10 -262144 -1 -1 0
1;
#X obj 475 157 tgl 15 0 empty empty empty 17 7 0 10 -262144 -1 -1 0
1;
#N canvas 1496 217 450 300 volume 1;
#X obj 230 16 inlet;
#X obj 161 30 inlet~;
#X obj 187 163 outlet~;
#X obj 187 136 *~;
#X obj 211 61 / 127;
#X obj 261 69 bang;
#X obj 230 38 unpack f f;
#X msg 261 91 5;
#X obj 211 107 line~;
#X obj 211 83 pow 2;
#X connect 0 0 6 0;
#X connect 1 0 3 0;
#X connect 3 0 2 0;
#X connect 4 0 9 0;
#X connect 5 0 7 0;
#X connect 6 0 4 0;
#X connect 6 0 5 0;
#X connect 7 0 8 1;
#X connect 8 0 3 1;
#X connect 9 0 8 0;
#X restore 134 335 pd volume;
#X obj 177 169 ctlin 30;
#X obj 233 169 ctlin 31;
#X floatatom 136 169 5 0 0 0 - - -, f 5;
#X obj 141 222 pack f f f;
#X obj 70 194 t b b;
#X obj 141 243 route 0 1 2 3 4 5 6 7 8 9;
#X connect 0 0 1 0;
#X connect 1 0 40 0;
#X connect 2 0 32 0;
#X connect 3 0 41 0;
#X connect 4 0 3 0;
#X connect 5 0 2 0;
#X connect 6 0 33 0;
#X connect 7 0 35 0;
#X connect 8 0 34 0;
#X connect 9 0 36 0;
#X connect 10 0 38 0;
#X connect 11 0 37 0;
#X connect 12 0 39 0;
#X connect 13 0 6 0;
#X connect 14 0 8 0;
#X connect 15 0 7 0;
#X connect 16 0 9 0;
#X connect 17 0 11 0;
#X connect 18 0 10 0;
#X connect 19 0 12 0;
#X connect 20 1 29 0;
#X connect 21 0 45 0;
#X connect 22 0 21 0;
#X connect 23 0 22 0;
#X connect 23 0 27 0;
#X connect 24 0 23 1;
#X connect 24 0 26 0;
#X connect 29 0 23 0;
#X connect 29 1 24 0;
#X connect 29 2 25 0;
#X connect 30 0 42 0;
#X connect 30 1 42 0;
#X connect 42 0 31 0;
#X connect 42 0 31 1;
#X connect 43 0 46 1;
#X connect 43 0 47 0;
#X connect 44 0 46 2;
#X connect 44 0 47 0;
#X connect 45 0 46 0;
#X connect 46 0 48 0;
#X connect 47 0 46 0;
#X connect 47 1 46 0;
#X connect 48 0 42 1;
