#N canvas 174 68 892 516 10;
#X obj 74 243 adc~;
#X obj 75 497 dac~;
#X obj 604 22 hsl 128 15 0 10 0 0 empty empty empty -2 -8 0 10 -262144
-1 -1 0 1;
#X obj 330 162 *~ 2;
#X obj 330 225 +~ 2;
#X obj 377 181 *~ 2;
#X obj 376 219 +~ 2;
#X obj 150 343 delwrite~ phase2 100;
#X obj 376 241 vd~ phase2;
#X obj 377 126 wrap~;
#X obj 347 72 phasor~;
#X obj 377 105 +~ 0.5;
#X obj 330 106 cos~;
#X obj 377 160 cos~;
#X obj 604 92 hsl 128 15 0 3 0 0 empty empty empty -2 -8 0 10 -262144
-1 -1 0 1;
#X obj 377 312 *~ 0.8;
#X obj 332 379 *~ 0.8;
#X obj 496 377 s~ output;
#X obj 117 449 r~ output;
#X obj 602 159 hsl 128 15 -0.9 0.9 0 0 empty empty empty -2 -8 0 10
-262144 -1 -1 0 1;
#X obj 332 341 vd~ phase1;
#X obj 127 426 delwrite~ phase1 100;
#X floatatom 601 43 5 0 0 0 - - -, f 5;
#X floatatom 601 116 5 0 0 0 - - -, f 5;
#X floatatom 599 180 5 0 0 0 - - -, f 5;
#X text 303 72 LFO->;
#X text 31 218 Replace with [inlet~];
#X text 33 23 Phaser.pd;
#X text 592 1 Speed;
#X text 598 75 Depth;
#X text 593 140 Feedback;
#X text 576 228 Replace above inputs to wire to MIDI [inlet];
#X obj 748 158 inlet;
#X obj 748 21 inlet;
#X obj 748 91 inlet;
#X obj 120 242 inlet~;
#X obj 125 497 outlet~;
#X text 22 520 Replace with [outlet~];
#X text 847 609;
#X text 24 -22;
#X connect 0 0 1 0;
#X connect 0 0 1 1;
#X connect 0 0 7 0;
#X connect 0 0 21 0;
#X connect 2 0 10 0;
#X connect 2 0 22 0;
#X connect 3 0 4 0;
#X connect 4 0 20 0;
#X connect 5 0 6 0;
#X connect 6 0 8 0;
#X connect 8 0 15 0;
#X connect 8 0 17 0;
#X connect 9 0 13 0;
#X connect 10 0 11 0;
#X connect 10 0 12 0;
#X connect 11 0 9 0;
#X connect 12 0 3 0;
#X connect 13 0 5 0;
#X connect 14 0 3 1;
#X connect 14 0 5 1;
#X connect 14 0 4 1;
#X connect 14 0 6 1;
#X connect 14 0 23 0;
#X connect 15 0 7 0;
#X connect 16 0 21 0;
#X connect 18 0 1 1;
#X connect 18 0 1 0;
#X connect 19 0 16 1;
#X connect 19 0 15 1;
#X connect 19 0 24 0;
#X connect 20 0 16 0;
#X connect 20 0 17 0;
