#N canvas 174 68 892 516 10;
#X obj 330 162 *~ 2;
#X obj 330 225 +~ 2;
#X obj 377 181 *~ 2;
#X obj 376 219 +~ 2;
#X obj 150 343 delwrite~ phase2 100;
#X obj 376 241 vd~ phase2;
#X obj 377 126 wrap~;
#X obj 347 72 phasor~;
#X obj 377 105 +~ 0.5;
#X obj 330 106 cos~;
#X obj 377 160 cos~;
#X obj 377 312 *~ 0.8;
#X obj 332 379 *~ 0.8;
#X obj 496 377 s~ output;
#X obj 117 449 r~ output;
#X obj 332 341 vd~ phase1;
#X obj 127 426 delwrite~ phase1 100;
#X text 303 72 LFO->;
#X text 31 218 Replace with [inlet~];
#X text 33 23 Phaser.pd;
#X text 592 1 Speed;
#X text 593 140 Feedback;
#X text 576 228 Replace above inputs to wire to MIDI [inlet];
#X obj 653 -1 inlet;
#X obj 727 133 inlet;
#X obj 36 287 inlet~;
#X obj 59 495 outlet~;
#X text 22 520 Replace with [outlet~];
#X text 847 609 comment;
#X text 24 -22 comment;
#X connect 0 0 1 0;
#X connect 1 0 15 0;
#X connect 2 0 3 0;
#X connect 3 0 5 0;
#X connect 5 0 11 0;
#X connect 5 0 13 0;
#X connect 6 0 10 0;
#X connect 7 0 8 0;
#X connect 7 0 9 0;
#X connect 8 0 6 0;
#X connect 9 0 0 0;
#X connect 10 0 2 0;
#X connect 11 0 4 0;
#X connect 12 0 16 0;
#X connect 14 0 26 0;
#X connect 15 0 12 0;
#X connect 15 0 13 0;
#X connect 23 0 7 0;
#X connect 24 0 0 1;
#X connect 24 0 2 1;
#X connect 24 0 1 1;
#X connect 24 0 3 1;
#X connect 25 0 26 0;
#X connect 25 0 16 0;
#X connect 25 0 4 0;
