#N canvas 939 265 450 300 10;
#X obj 77 96 adc~;
#N canvas 0 23 653 300 SubPatchName 1;
#X obj 37 37 inlet~;
#X obj 38 226 outlet~;
#X obj 276 38 inlet;
#X floatatom 277 224 5 0 0 0 - - -, f 5;
#X text 301 112 This inlet is where you can recieve the midi signal
;
#X text 68 116 Between the inlet~ and outlet~ is where your sub-patch
would do its thing with the sound, f 20;
#X connect 0 0 1 0;
#X connect 2 0 3 0;
#X restore 77 132 pd SubPatchName;
#X obj 77 170 dac~;
#X text 202 127 Right-click to open the sub-patch to work in;
#X obj 183 95 hsl 128 15 0 127 0 0 empty empty empty -2 -8 0 10 -262144
-1 -1 5000 1;
#X connect 0 0 1 0;
#X connect 1 0 2 0;
#X connect 4 0 1 1;
