#N canvas 652 207 450 300 10;
#X obj 115 157 line;
#X msg 115 66 1;
#X obj 115 89 +;
#X obj 115 111 % 2;
#X obj 151 92 i;
#X obj 115 44 inlet;
#X obj 115 179 outlet;
#X msg 115 135 \$1 20;
#X floatatom 151 114 5 0 0 0 - - -, f 5;
#X connect 0 0 6 0;
#X connect 1 0 2 0;
#X connect 2 0 3 0;
#X connect 3 0 7 0;
#X connect 3 0 4 0;
#X connect 4 0 2 1;
#X connect 4 0 8 0;
#X connect 5 0 1 0;
#X connect 7 0 0 0;
