#N canvas 349 78 450 300 10;
#X obj 230 16 inlet;
#X obj 161 30 inlet~;
#X obj 187 163 outlet~;
#X obj 187 136 *~;
#X obj 211 61 / 127;
#X obj 261 69 bang;
#X msg 261 91 5;
#X obj 245 117 line~;
#X obj 211 84 pow 2;
#X floatatom 201 112 5 0 0 0 - - -, f 5;
#X connect 0 0 4 0;
#X connect 0 0 5 0;
#X connect 1 0 3 0;
#X connect 3 0 2 0;
#X connect 4 0 8 0;
#X connect 5 0 6 0;
#X connect 6 0 7 1;
#X connect 7 0 3 1;
#X connect 8 0 7 0;
#X connect 8 0 9 0;
