#N canvas 467 126 860 599 10;
#X obj 167 135 adc~;
#X obj 163 568 dac~;
#X text 289 514 <-- Voltage-Controlled band-pass filter;
#X text 577 575 Pierre Massat \, GuitarExtended \, 2012.s;
#X text 26 29 Patch taken from:;
#X text 26 40 https://guitarextended.wordpress.com/2012/01/07/wha-wha-auto-with-pure-data/
;
#X obj 250 557 outlet~;
#X obj 252 140 inlet~;
#X text 118 151 removed from -->;
#X text 124 551 removed from ->;
#X obj 269 409 inlet;
#X obj 269 431 mtof;
#X obj 329 460 inlet;
#X obj 329 482 / 10;
#X obj 250 513 bp~ 1;
#X obj 269 453 + 100;
#X obj 269 475 * 100;
#X connect 7 0 14 0;
#X connect 10 0 11 0;
#X connect 11 0 15 0;
#X connect 12 0 13 0;
#X connect 13 0 14 2;
#X connect 14 0 6 0;
#X connect 15 0 16 0;
#X connect 16 0 14 1;
