#N canvas 0 0 944 1021 10;
#X obj 13 15 moses 0.5;
#X msg 15 51 0;
#X msg 54 51 1;
#X msg 15 75 \$1 50;
#X obj 15 97 line~;
#X obj 15 119 *~;
#X msg 135 51 0;
#X msg 174 51 1;
#X msg 135 75 \$1 50;
#X obj 135 97 line~;
#X obj 135 119 *~;
#X connect 0 0 2 0;
#X connect 0 0 6 0;
#X connect 0 1 7 0;
#X connect 0 1 1 0;
#X connect 1 0 3 0;
#X connect 2 0 3 0;
#X connect 3 0 4 0;
#X connect 4 0 5 1;
#X connect 6 0 8 0;
#X connect 7 0 8 0;
#X connect 8 0 9 0;
#X connect 9 0 10 1;
